<?xml version="1.0" encoding="UTF-8"?>
<!DOCTYPE svg PUBLIC "-//W3C//DTD SVG 1.1//EN" "http://www.w3.org/Graphics/SVG/1.1/DTD/svg11.dtd">
<!-- Creator: CorelDRAW 2021 (64-Bit) -->
<svg xmlns="http://www.w3.org/2000/svg" xml:space="preserve" width="1000px" height="1000px" version="1.1" style="shape-rendering:geometricPrecision; text-rendering:geometricPrecision; image-rendering:optimizeQuality; fill-rule:evenodd; clip-rule:evenodd"
viewBox="0 0 1000 1000"
 xmlns:xlink="http://www.w3.org/1999/xlink"
 xmlns:xodm="http://www.corel.com/coreldraw/odm/2003">
 <defs>
  <style type="text/css">
   <![CDATA[
    .fil0 {fill:none}
    .fil1 {fill:url(#id0);fill-rule:nonzero}
   ]]>
  </style>
  <linearGradient id="id0" gradientUnits="userSpaceOnUse" x1="75.59" y1="500.85" x2="1158.75" y2="45.11">
   <stop offset="0" style="stop-opacity:1; stop-color:#2B3E8F"/>
   <stop offset="1" style="stop-opacity:1; stop-color:#00A2E9"/>
  </linearGradient>
 </defs>
 <g id="Layer_x0020_1">
  <metadata id="CorelCorpID_0Corel-Layer"/>
  <g id="_2263066087648">
   <rect class="fil0" width="1000" height="1000"/>
   <path class="fil1" d="M500.21 82.27c42.76,0 84.01,6.42 122.86,18.36 9.98,-2.85 23.04,-2.22 35.83,2.52 14.08,5.21 24.47,14.14 28.68,23.4 40.13,20.18 76.57,46.63 108.01,78.07 75.6,75.59 122.35,180.03 122.35,295.38 0,14.95 -0.78,29.71 -2.31,44.25 6.1,4.99 9.84,15.54 9.03,27.74 -1.06,15.8 -9.37,28.83 -19.09,30.6 -0.57,1.94 -1.18,3.87 -1.83,5.78 -19.23,71.8 -57.12,135.98 -108.15,187.01 -22.52,22.52 -47.59,42.48 -74.76,59.4 -5.26,4.24 -11.07,7.67 -17.4,10.27 -60.15,33.56 -129.45,52.68 -203.22,52.68 -48.82,0 -95.68,-8.38 -139.23,-23.77l-1.36 -0.19c-6.16,6.45 -19.39,7.86 -32.75,2.77 -15.15,-5.78 -25.03,-17.89 -23.12,-27.81 -36.55,-19.51 -69.87,-44.3 -98.92,-73.35 -75.59,-75.59 -122.35,-180.03 -122.35,-295.38 0,-10.34 0.38,-20.6 1.12,-30.75l0.02 -1.41c-5.75,-7.54 -9.05,-19.43 -8.28,-32.83 1.07,-18.43 9.54,-34.04 20.29,-39.33 18.88,-73.44 57.21,-139.08 109.2,-191.06 11.8,-11.8 24.31,-22.9 37.45,-33.23 4.92,-4.92 10.41,-9.03 16.45,-12.29 68.18,-48.38 151.51,-76.83 241.48,-76.83zm128.32 557.63c1.33,0 2.64,0.1 3.91,0.28 12.61,-24.3 24.37,-50 35.02,-76.86 2.41,-6.07 4.75,-12.19 7.04,-18.37 -3.22,-6.64 -6.55,-13.26 -9.96,-19.87 -79.9,-31.84 -174.82,-61.55 -269.81,-82.85 -25.71,-5.76 -50.22,-10.64 -73.32,-14.65 -1.23,3.01 -2.45,6.03 -3.66,9.07 -3.01,7.58 -5.92,15.26 -8.74,23.01 -3.3,9.05 -6.4,18.07 -9.33,27.05 16.58,32.98 35.49,65.68 56.02,97.18 68.19,24.55 144.04,46.94 219.93,63.96 9.84,2.2 19.51,4.28 28.98,6.22 4.64,-8.44 13.61,-14.17 23.92,-14.17zm20.26 9.02c3.62,4.01 6.06,9.09 6.79,14.71 24.27,4.08 46.94,7.19 67.79,9.33 -3.68,-13.89 -8.17,-28.44 -13.47,-43.62 -7.07,-20.21 -15.28,-40.63 -24.48,-61.06l-0.74 1.88c-10.91,27.51 -22.96,53.84 -35.89,78.76zm2.74 32.92c-4.85,7.59 -13.34,12.61 -23,12.61 -1.71,0 -3.37,-0.15 -4.99,-0.45 -11.15,18.45 -22.76,35.89 -34.7,52.22 20.44,-0.43 40.23,-1.83 59.26,-4.15 30.78,-3.74 59.53,-9.86 85.72,-18.07 -1.38,-10.13 -3.3,-20.77 -5.77,-31.89 -23.35,-2.21 -48.96,-5.62 -76.52,-10.27zm-43.98 2.76c-2.84,-3.42 -4.86,-7.54 -5.76,-12.06 -9.92,-2.03 -20.03,-4.2 -30.33,-6.51 -67.91,-15.23 -135.79,-34.71 -198.3,-56.21 11.27,16.21 22.94,32.03 34.9,47.31 23.47,29.97 48.05,57.86 72.94,82.66 15.17,2.09 30.54,3.71 46.05,4.82 13.05,0.94 25.9,1.49 38.54,1.68 14.51,-18.92 28.57,-39.56 41.96,-61.69zm-267.74 175.01c8.22,3.14 14.89,8.13 18.97,13.64 2.17,0.82 4.35,1.62 6.53,2.41 43.28,4.96 94.27,-20.05 144.18,-66.8 3.24,-3.03 6.47,-6.16 9.69,-9.36 -15.68,-12.72 -31.4,-26.83 -46.99,-42.11 -68.97,-10.15 -133.89,-29.88 -190.14,-56.34 -4.55,4.86 -10.41,8.48 -17.02,10.27 0.27,5.41 0.64,10.72 1.12,15.94 5.27,57.83 22.9,103.21 52.28,128.07l2.59 1.31c5.68,-0.47 12.22,0.47 18.79,2.97zm399.24 -534.04c9.17,3.6 15.66,12.53 15.66,22.96 0,1.47 -0.13,2.92 -0.37,4.32 4.37,2.52 8.66,5.08 12.89,7.69 63.83,39.37 110.99,88.36 132.01,141.12l0.01 -1.66c0,-110.19 -44.66,-209.96 -116.87,-282.17 -24.23,-24.22 -51.56,-45.34 -81.34,-62.72 19.94,28.82 32.2,68.62 36.5,115.76 1.57,17.28 2.08,35.58 1.51,54.7zm5.32 43.04c-2.58,1.84 -5.52,3.2 -8.71,3.94 -5.24,46.56 -16.19,96.67 -33.03,148.05 83.05,35.45 146.39,72.8 171.1,104.09 0.44,0.56 0.87,1.12 1.29,1.67 4.41,-7.56 8.04,-15.39 10.83,-23.47 1.07,-3.99 2.07,-8.01 3.01,-12.06 -2.18,-5.21 -3.24,-11.75 -2.76,-18.84 0.51,-7.79 2.79,-14.9 6.14,-20.32 -0.15,-1.83 -0.33,-3.66 -0.56,-5.51 -7.62,-62.68 -58.37,-122.97 -134.24,-169.77 -4.28,-2.64 -8.64,-5.23 -13.07,-7.78zm-27.03 1.05c-7.15,-4.32 -11.94,-12.16 -11.94,-21.13l0.01 -0.23c-52.97,-24.96 -113.98,-43.79 -178.92,-53.94 7,7.62 13.96,15.45 20.85,23.47 4.96,-2.14 10.44,-3.33 16.19,-3.33 22.61,0 40.92,18.32 40.92,40.92 0,9.14 -3,17.58 -8.06,24.39 30.1,41.19 57.87,85.44 81.56,130.54 2.53,1.02 5.03,2.05 7.52,3.07 16.3,-50.02 26.87,-98.67 31.87,-143.76zm-4.72 -38.55c2.24,-2.24 4.91,-4.06 7.88,-5.31 0.57,-18.58 0.09,-36.34 -1.44,-53.09 -4.71,-51.69 -19.3,-93.44 -43.32,-119.47 -10.31,4.13 -24.97,3.97 -39.31,-1.33 -16.49,-6.11 -27.92,-17.32 -30.28,-28.18 -40.13,1.06 -85.71,25.48 -130.43,67.37 -7.48,7.01 -14.93,14.5 -22.31,22.45 1.79,3.21 2.81,6.91 2.81,10.84 0,0.79 -0.04,1.56 -0.12,2.33 16.6,13.85 33.23,29.24 49.67,45.9 75.18,9.25 146.07,29.95 206.85,58.49zm-278.7 -129.02c1.49,0 2.94,0.15 4.34,0.43 8.21,-8.92 16.5,-17.3 24.83,-25.11 38.5,-36.06 78.13,-60.03 115.52,-68.75 -25.35,-5.05 -51.56,-7.7 -78.4,-7.7 -69.84,0 -135.48,17.94 -192.58,49.47 19.14,1.73 40.92,8.34 65.07,20.28l0.03 -0.03c17.46,8.64 35.39,19.68 53.51,32.77 2.39,-0.88 4.98,-1.36 7.68,-1.36zm12.4 40.85c-3.55,2.37 -7.81,3.75 -12.4,3.75 -2.73,0 -5.35,-0.48 -7.76,-1.38 -5.64,7.08 -11.21,14.43 -16.71,22.02 19.4,-0.29 39.35,0.27 59.76,1.73 2.27,0.16 4.53,0.34 6.79,0.52 -9.88,-9.41 -19.79,-18.31 -29.68,-26.64zm-33.35 -10.9c-0.87,-2.38 -1.35,-4.96 -1.35,-7.65 0,-2.61 0.45,-5.12 1.28,-7.45 -16.4,-11.67 -32.6,-21.55 -48.36,-29.34l0.01 -0.03c-27.11,-13.4 -50.45,-19.39 -69.62,-18.71 -10.55,0.37 -19.83,2.81 -27.74,7.18 -3.88,2.79 -7.71,5.66 -11.48,8.58 -0.79,0.79 -1.57,1.6 -2.32,2.44 -10.52,11.76 -17.24,29.17 -19.81,51.55 -1.65,14.42 -1.56,30.77 0.36,48.9 4.98,0.57 9.51,2.64 13.13,5.73 29.56,-9.96 62.33,-17.28 97.58,-21.57 13.48,-1.64 27.33,-2.83 41.51,-3.56 8.74,-12.65 17.7,-24.68 26.81,-36.07zm-286.99 187.31c0.96,4.83 1.34,10.12 1.02,15.66 -0.61,10.51 -3.62,20.1 -8.09,27.38 25.67,25.69 77.66,55.59 144.6,84.93 4.5,-19.32 9.89,-38.99 16.16,-58.87 -11.67,-23.7 -22.15,-47.53 -31.19,-71.18 -41.39,-4.32 -75.69,-4.89 -101.17,-1.86 -8.13,0.97 -15.26,2.29 -21.33,3.94zm-20.72 55.66c-0.94,0.37 -1.89,0.66 -2.85,0.87 0.15,3.39 0.44,6.8 0.86,10.26 7.35,60.45 54.81,118.68 126.24,164.72 4.98,-5.1 11.44,-8.74 18.7,-10.22 2.17,-23.99 5.9,-49.02 11.21,-74.74 -70.74,-30.8 -126.21,-62.81 -154.16,-90.89zm150.3 -164.93c0.05,0.58 0.07,1.17 0.07,1.76 0,9.62 -5.57,17.96 -13.65,21.96 4.22,18.07 9.88,37.38 17.03,57.83 0.98,2.81 1.98,5.62 3,8.43 15.2,1.77 31.24,4.02 48.03,6.73 18.61,-43.29 39.98,-83.33 63.06,-119.14 -8.9,0.67 -17.66,1.53 -26.25,2.58 -32.98,4.01 -63.62,10.74 -91.29,19.85zm-32.5 24.87c-4.26,-1.49 -7.98,-4.12 -10.8,-7.53 -14.23,6.86 -27.32,14.47 -39.12,22.77 -21.16,14.88 -38.14,31.95 -50.17,50.78 6.61,-1.71 14.05,-3.06 22.27,-4.04 24.76,-2.95 57.29,-2.67 96.14,0.96l-0.06 -0.18c-7.75,-22.17 -13.81,-43.14 -18.26,-62.76zm-16.27 -25.58c0.66,-6.66 4,-12.53 8.92,-16.53 -2.46,-21 -2.67,-39.93 -0.76,-56.58 0.74,-6.52 1.82,-12.7 3.21,-18.54l-0.11 0.11c-42.43,42.43 -75.35,94.38 -95.28,152.36 11.11,-12.75 24.4,-24.55 39.63,-35.27 13.34,-9.38 28.19,-17.93 44.39,-25.55zm375.26 82.56c-5.56,2.82 -11.85,4.42 -18.52,4.42 -22.6,0 -40.93,-18.32 -40.93,-40.93 0,-10.06 3.64,-19.27 9.66,-26.4 -11.6,-13.49 -23.39,-26.4 -35.28,-38.64 -9.62,-1.09 -19.32,-1.99 -29.08,-2.69 -24.66,-1.77 -48.63,-2.18 -71.74,-1.32 -24.64,36.62 -47.51,78.23 -67.3,123.59 22.2,3.92 45.6,8.61 70.05,14.09 87.94,19.72 175.84,46.58 252.07,75.71 -20.62,-37.17 -43.94,-73.56 -68.93,-107.83zm-18.52 -62.62c-14.43,0 -26.12,11.69 -26.12,26.11 0,14.43 11.69,26.12 26.12,26.12 14.42,0 26.11,-11.69 26.11,-26.12 0,-14.42 -11.69,-26.11 -26.11,-26.11zm-296.82 312.36c14.59,4.73 25.14,18.43 25.14,34.57 0,2.88 -0.34,5.69 -0.98,8.38 47.61,22.29 101.66,39.63 159.19,50.19 -19.38,-20.53 -38.42,-42.74 -56.77,-66.17 -17.33,-22.13 -34.05,-45.38 -49.87,-69.35 -23.22,-8.46 -45.52,-17.16 -66.61,-25.98 -4.73,23.53 -8.09,46.4 -10.1,68.36zm-20.25 69.78c-15.69,-4.02 -27.3,-18.27 -27.3,-35.21 0,-3.15 0.4,-6.22 1.16,-9.14 -52.74,-33.84 -93.36,-74.37 -116.16,-118.07 11.1,90.6 52.56,171.81 113.89,233.13 17.36,17.37 36.32,33.13 56.63,47.07 -14.38,-26.93 -23.43,-61 -27,-100.14 -0.53,-5.76 -0.94,-11.65 -1.22,-17.64zm9.05 -54.97c-10.92,0 -19.77,8.85 -19.77,19.77 0,10.93 8.85,19.77 19.77,19.77 10.92,0 19.77,-8.84 19.77,-19.77 0,-10.92 -8.85,-19.77 -19.77,-19.77zm596.94 31.2c-3.25,1 -6.73,1.9 -10.43,2.7 -3.07,2.38 -6.23,4.71 -9.47,7 -22.23,15.62 -48.63,28.94 -78.45,39.53 1.57,17.52 1.49,33.5 -0.15,47.8 -1.16,10.15 -3.12,19.5 -5.84,28 12,-9.52 23.45,-19.72 34.27,-30.55 27.75,-27.74 51.43,-59.56 70.07,-94.48zm-50.78 7.21c-15.94,0.59 -34.06,0.2 -54.15,-1.19 1.73,8.32 3.17,16.38 4.32,24.18 18.08,-6.64 34.75,-14.34 49.83,-22.99zm-499 -270.42c-11.44,-1.81 -22.51,-3.4 -33.17,-4.76 5.7,14.37 11.94,28.8 18.66,43.2 1.12,-3.2 2.27,-6.41 3.44,-9.62 2.8,-7.7 5.78,-15.53 8.93,-23.48 0.71,-1.79 1.42,-3.57 2.14,-5.34zm-21.87 130.28l0.81 0.34c14.47,6.08 29.54,12.12 45.09,18.05 -12.36,-19.97 -24.04,-40.33 -34.88,-60.87 -4.15,14.32 -7.82,28.5 -11.02,42.48zm462.35 120c31.97,2.47 58.93,2.42 79.91,-0.08 3.8,-0.46 7.38,-0.99 10.73,-1.59 11.58,-9.34 21.64,-19.43 30,-30.17 -1.21,-2.05 -2.72,-4.23 -4.54,-6.54 -22.68,-28.73 -82.9,-63.94 -162.65,-98.06 -0.63,1.82 -1.28,3.63 -1.93,5.44 12.63,26.55 23.71,53.2 32.91,79.51 6.29,17.98 11.46,35.17 15.57,51.49zm-7.34 68.17c-26.33,8 -54.99,14 -85.51,17.71 -24.14,2.94 -49.47,4.45 -75.77,4.41 -9.05,11.46 -18.26,22.27 -27.57,32.39 19.49,14.58 38.75,26.72 57.4,35.94l-0.01 0.03c27.11,13.4 50.45,19.39 69.63,18.71 8.46,-0.3 16.1,-1.93 22.88,-4.81 3.99,-2.27 7.95,-4.61 11.86,-7.01 2.43,-1.91 4.69,-4.04 6.79,-6.39 10.52,-11.76 17.25,-29.16 19.81,-51.54 1.36,-11.87 1.54,-25.04 0.49,-39.44zm-184.84 21.68c-8.33,-0.3 -16.74,-0.75 -25.23,-1.36 -7.44,-0.53 -14.84,-1.18 -22.2,-1.94 9.56,8.74 19.14,16.98 28.68,24.67 6.3,-6.79 12.56,-13.93 18.75,-21.37zm100.69 104.69c-16.73,-2.79 -35.27,-9.05 -55.46,-19.03l-0.03 0.02c-20.26,-10.01 -41.15,-23.27 -62.23,-39.21 -3.93,3.95 -7.87,7.78 -11.82,11.48 -36.17,33.89 -73.36,57.11 -108.74,67.01 27.95,6.2 57.01,9.48 86.83,9.48 53.61,0 104.75,-10.57 151.45,-29.75z"/>
  </g>
 </g>
</svg>
