<?xml version="1.0" encoding="UTF-8"?>
<!DOCTYPE svg PUBLIC "-//W3C//DTD SVG 1.1//EN" "http://www.w3.org/Graphics/SVG/1.1/DTD/svg11.dtd">
<!-- Creator: CorelDRAW 2021 (64-Bit) -->
<svg xmlns="http://www.w3.org/2000/svg" xml:space="preserve" width="2000px" height="876px" version="1.1" style="shape-rendering:geometricPrecision; text-rendering:geometricPrecision; image-rendering:optimizeQuality; fill-rule:evenodd; clip-rule:evenodd"
viewBox="0 0 2000 875.51"
 xmlns:xlink="http://www.w3.org/1999/xlink"
 xmlns:xodm="http://www.corel.com/coreldraw/odm/2003">
 <defs>
  <style type="text/css">
   <![CDATA[
    .fil0 {fill:none}
    .fil1 {fill:#FEFEFE;fill-rule:nonzero}
   ]]>
  </style>
 </defs>
 <g id="Layer_x0020_1">
  <metadata id="CorelCorpID_0Corel-Layer"/>
  <g id="_2265421936640">
   <polygon class="fil0" points="0,0.24 2000,0.24 2000,875.75 0,875.75 "/>
   <g>
    <g>
     <path class="fil1" d="M554.61 173.43l0.59 0.01 0.04 0 2.25 0.07 0.09 0.01 0.2 0.01 0.42 0.01 1.91 0.09 1.2 0.06c1.83,0.1 3.66,0.23 5.48,0.38l0.03 0c9.11,0.73 18.06,2.04 26.81,3.89l0.4 0.09 1.97 0.43 0.48 0.11 1.97 0.45 0.44 0.11 2.03 0.49 0.25 0.06c1.51,0.38 3.01,0.77 4.5,1.17l0.3 0.09c5.27,1.45 10.46,3.1 15.56,4.93l0.59 0.22 1.76 0.64 0.49 0.19 2.03 0.77 0.14 0.06 2.01 0.79 0.38 0.15 1.87 0.77 0.34 0.14 1.95 0.82 0.25 0.11 1.99 0.87 0.25 0.11 1.79 0.8 0.66 0.3c4.02,1.85 7.96,3.81 11.84,5.89l0.73 0.39 1.63 0.89 0.38 0.21 1.56 0.88 0.72 0.4 1.13 0.66 1.15 0.67 1.04 0.61 0.87 0.53 1.36 0.83 0.79 0.48 1.21 0.75 0.94 0.6 1.21 0.77 0.78 0.51 1.17 0.76 1.1 0.74 0.98 0.66 0.97 0.66 1.09 0.75 0.54 0.38c1.66,1.16 3.31,2.35 4.93,3.55l0.44 0.33 0.87 0.66 1.15 0.87 0.78 0.6 1.16 0.9 0.81 0.64 1.19 0.94 0.61 0.5 1.32 1.07 0.82 0.69 0.94 0.78 0.94 0.79 1.01 0.87 0.86 0.74 1.02 0.9 0.79 0.69 1.1 0.99 0.77 0.7 0.88 0.81 1.02 0.95 0.52 0.48c1.59,1.5 3.16,3.02 4.71,4.56 38.49,38.49 62.3,91.67 62.3,150.4l-0.02 2.46 0 0.52c-0.03,1.61 -0.07,3.22 -0.13,4.82l-0.03 0.91 -0.08 1.85 -0.03 0.5 -0.11 2.06 -0.08 1.23 -0.09 1.25 -0.21 2.61 -0.02 0.32 -0.14 1.53 -0.05 0.52c-4.85,50.52 -27.37,95.88 -61.31,129.82 -38.5,38.5 -91.67,62.3 -150.4,62.3 -58.74,0 -111.91,-23.8 -150.4,-62.3 -33.94,-33.94 -56.47,-79.3 -61.32,-129.82l-0.04 -0.52 -0.14 -1.53 -0.03 -0.32 -0.2 -2.61 -0.09 -1.25 -0.08 -1.23 -0.12 -2.06 -0.02 -0.5 -0.08 -1.85 -0.04 -0.91c-0.06,-1.6 -0.09,-3.21 -0.12,-4.82l0 -0.52 -0.02 -2.46c0,-58.73 23.81,-111.9 62.3,-150.4 35.78,-35.78 84.25,-58.87 138.08,-61.94l0.47 -0.03 1.25 -0.06 2.28 -0.1 0.29 -0.02 2.25 -0.07 0.64 -0.01c1.71,-0.05 3.42,-0.07 5.14,-0.07l2.73 0.02 0.02 0 2.4 0.05zm42.5 395.62c-16.58,-3.81 -32.53,-9.27 -47.65,-16.22 -15.13,6.94 -31.08,12.41 -47.66,16.22 15.23,3.96 31.2,6.06 47.66,6.06 16.46,0 32.43,-2.1 47.65,-6.06zm-74.57 -30.64c-17.84,-11.02 -34.18,-24.23 -48.64,-39.27 -27.13,-28.2 -47.66,-62.78 -59.12,-101.25l-54 0c2.93,47.5 23.39,90.25 55,121.85 12.43,12.44 26.6,23.15 42.1,31.75 22.59,-1.18 44.31,-5.71 64.66,-13.08zm-113.55 -164.17c-2.96,-15.33 -4.52,-31.16 -4.52,-47.35 0,-20.91 2.61,-41.26 7.51,-60.75 1.18,-4.68 2.49,-9.31 3.93,-13.88l-0.13 0.12 -1.51 1.53 -1.15 1.19 -0.29 0.3 -0.96 1.01 -0.61 0.65 -0.71 0.77 -0.83 0.89 -0.52 0.58 -1 1.12 -0.54 0.6 -0.82 0.93 -0.64 0.75 -0.88 1.03 -0.51 0.61 -0.95 1.13 -0.39 0.48 -1.12 1.36 -0.32 0.4 -0.88 1.1 -0.52 0.67 -1.14 1.46 -0.17 0.22 -0.78 1.03 -1.62 2.18 -0.23 0.31 -0.9 1.25 -0.35 0.47 -0.81 1.15 -0.46 0.66 -0.73 1.06 -0.5 0.73 -0.74 1.1 -0.49 0.74 -0.6 0.91 -0.7 1.08 -0.44 0.68 -0.75 1.19 -0.47 0.76 -0.58 0.93 -0.62 1.02 -0.47 0.79 -0.69 1.16 -0.26 0.44 -0.85 1.47 -0.18 0.31 -0.88 1.55 -0.07 0.13c-0.89,1.6 -1.75,3.21 -2.59,4.84l-0.4 0.77 -0.58 1.14 -0.35 0.69 -0.7 1.42 -0.27 0.55 -0.57 1.19 -0.42 0.89 -0.56 1.2 -0.31 0.67 -0.62 1.37 -0.27 0.62 -0.57 1.3 -0.35 0.81 -0.53 1.24 -0.3 0.74 -0.51 1.23 -0.44 1.09 -0.36 0.92 -0.35 0.9c-1.13,2.91 -2.19,5.86 -3.17,8.83l-0.24 0.71 -0.42 1.31 -0.21 0.68 -0.52 1.67 -0.12 0.4 -0.4 1.35 -0.3 1.04 -0.3 1.05 -0.28 1.03 -0.36 1.33 -0.17 0.62 -0.42 1.63 -0.08 0.33 -0.45 1.81 -0.07 0.32c-0.99,4.11 -1.83,8.27 -2.54,12.48l-0.02 0.09 -0.28 1.75 -0.09 0.52 -0.23 1.58 -0.1 0.67 -0.26 1.88 -0.02 0.14 -0.24 1.91 -0.06 0.47 -0.19 1.64 -0.07 0.7 -0.18 1.7 -0.03 0.3 -0.18 1.99 -0.01 0.15 -0.16 1.99 -0.03 0.54 -0.12 1.79 48.21 0zm274.15 -121.86l-0.13 -0.12c1.44,4.57 2.75,9.2 3.93,13.88 4.9,19.49 7.5,39.85 7.5,60.76 0,16.18 -1.55,32.01 -4.51,47.34l48.21 0 -0.12 -1.79 -0.04 -0.54 -0.16 -2.05 -0.01 -0.08 -0.18 -2.02 -0.03 -0.27 -0.17 -1.73 -0.07 -0.65 -0.2 -1.7 -0.05 -0.42 -0.24 -1.93 -0.02 -0.14 -0.26 -1.89 -0.09 -0.62 -0.25 -1.66 -0.06 -0.36c-0.78,-4.93 -1.75,-9.81 -2.9,-14.61l-0.02 -0.1 -0.5 -1.99 -0.03 -0.13 -0.45 -1.76 -0.14 -0.54 -0.38 -1.37 -0.26 -0.94 -0.34 -1.21 -0.24 -0.84 -0.46 -1.53 -0.07 -0.23 -0.55 -1.78 -0.17 -0.53 -0.48 -1.51 -0.17 -0.51c-0.99,-3.03 -2.07,-6.02 -3.21,-8.97l-0.35 -0.9 -0.42 -1.05 -0.35 -0.89 -0.64 -1.54 -0.16 -0.39 -0.65 -1.52 -0.22 -0.53 -0.69 -1.57 -0.14 -0.31 -0.75 -1.65 -0.15 -0.34 -0.71 -1.51 -0.27 -0.58 -0.7 -1.47 -0.15 -0.29 -0.78 -1.6 -0.35 -0.69 -0.58 -1.14 -0.4 -0.77c-1.17,-2.25 -2.38,-4.48 -3.64,-6.68l-0.07 -0.14 -0.86 -1.48 -0.26 -0.44 -0.69 -1.16 -0.47 -0.79 -0.67 -1.1 -0.45 -0.73 -0.63 -1.01 -0.66 -1.03 -0.45 -0.71 -0.7 -1.08 -0.6 -0.91 -0.5 -0.74 -0.73 -1.1 -0.5 -0.73 -0.73 -1.06 -0.47 -0.66 -0.81 -1.15 -0.34 -0.47 -0.9 -1.25 -0.23 -0.31 -1.62 -2.18 -0.78 -1.03 -0.17 -0.22 -1.14 -1.46 -0.66 -0.84 -0.64 -0.81 -0.59 -0.73 -0.94 -1.15 -0.4 -0.48 -0.95 -1.13 -0.52 -0.61 -0.87 -1.03 -0.65 -0.75 -0.82 -0.93 -0.53 -0.6 -1 -1.12 -0.53 -0.58 -0.82 -0.89 -0.71 -0.77 -0.61 -0.65 -0.96 -1.01 -0.29 -0.3 -1.15 -1.19 -1.51 -1.53zm-60.18 -40.55c-2,-0.84 -4.03,-1.66 -6.07,-2.43l-0.37 -0.15 -1.95 -0.73 -0.21 -0.07c-1.34,-0.49 -2.68,-0.97 -4.03,-1.42l-0.53 -0.18c-1.37,-0.46 -2.74,-0.91 -4.11,-1.33l-0.02 -0.01 -2.11 -0.64 -0.16 -0.05 -2.18 -0.63 -0.01 -0.01c-1.48,-0.42 -2.97,-0.82 -4.46,-1.2l-0.14 -0.04 -1.9 -0.47 -0.45 -0.11c-1.35,-0.33 -2.71,-0.65 -4.07,-0.95l-0.5 -0.11 -2 -0.42 -0.33 -0.06 -1.98 -0.4 -0.24 -0.04 -2.04 -0.38 -0.63 -0.11 -1.57 -0.27 -0.51 -0.09 -2.11 -0.33 -0.11 -0.02 -2.23 -0.32 -0.07 -0.02c-1.51,-0.21 -3.03,-0.4 -4.56,-0.58l-0.27 -0.03 -2.19 -0.23 -0.24 -0.03 -1.94 -0.18 -0.52 -0.05 -2.08 -0.17 -0.22 -0.02 -2.14 -0.15 -0.22 -0.01 -2.18 -0.12 -0.5 -0.03 -1.66 -0.07 -0.7 -0.03c-1.47,-0.05 -2.94,-0.09 -4.42,-0.11l-0.28 0 -2.29 -0.02c-35.08,0 -67.93,9.56 -96.09,26.2 -7.94,15.27 -14.19,31.58 -18.48,48.66 -4.42,17.56 -6.77,35.99 -6.77,55.02 0,16.25 1.72,32.09 4.99,47.35l232.69 0c3.27,-15.26 4.99,-31.1 4.99,-47.34 0,-19.03 -2.34,-37.47 -6.76,-55.03 -4.29,-17.08 -10.55,-33.39 -18.49,-48.66l-0.25 -0.14 -1.34 -0.78 -0.84 -0.49 -0.89 -0.5 -1.17 -0.66 -1.12 -0.61 -0.71 -0.39 -1.42 -0.76 -0.3 -0.16 -1.77 -0.92 -0.4 -0.21 -1.8 -0.9 -0.06 -0.03 -1.81 -0.89 -0.5 -0.24 -1.6 -0.76 -0.28 -0.13 -1.79 -0.82 -0.54 -0.24 -1.55 -0.7 -0.31 -0.13 -1.98 -0.85 -0.15 -0.07zm-183.41 186.06c10.67,32.14 28.4,61.05 51.34,84.9 16.93,17.6 36.7,32.45 58.57,43.81 21.86,-11.36 41.63,-26.21 58.56,-43.81 22.95,-23.85 40.67,-52.76 51.35,-84.9l-219.82 0zm136.83 140.52c20.35,7.38 42.06,11.9 64.66,13.08 15.5,-8.6 29.66,-19.31 42.1,-31.75 31.6,-31.6 52.07,-74.35 55,-121.85l-54 0c-11.46,38.47 -31.99,73.05 -59.12,101.25 -14.46,15.03 -30.8,28.25 -48.64,39.27z"/>
     <path class="fil1" d="M718.01 702.64c-5.61,-7.27 -11.67,-14.17 -18.15,-20.65 -19.88,-19.87 -43.66,-35.83 -70.11,-46.62 26.45,-10.79 50.23,-26.75 70.11,-46.62 24.08,-24.08 42.42,-53.92 52.77,-87.27 -10.26,18.04 -22.99,34.79 -37.97,49.78 -43.95,43.94 -103.04,68.43 -165.2,68.43 -62.16,0 -121.25,-24.48 -165.2,-68.43 -14.99,-14.99 -27.71,-31.74 -37.97,-49.78 10.35,33.35 28.68,63.19 52.77,87.27 19.87,19.87 43.66,35.83 70.1,46.62 -26.44,10.79 -50.23,26.75 -70.1,46.62 -6.48,6.48 -12.54,13.38 -18.15,20.64 49.39,-33.44 107.84,-51.58 168.55,-51.58 60.71,0 119.16,18.14 168.55,51.59z"/>
    </g>
    <path class="fil1" d="M955.62 568.51c-8.7,0 -16.82,-1.47 -24.34,-4.41 -7.52,-2.94 -14.05,-7 -19.58,-12.17 -5.52,-5.18 -9.87,-11.23 -13.05,-18.17 -3.17,-6.93 -4.76,-14.52 -4.76,-22.75 0,-8.46 1.88,-16.16 5.65,-23.1 3.76,-6.94 9.11,-12.87 16.04,-17.81 6.94,-4.94 15.17,-8.82 24.69,-11.64 9.53,-2.82 19.93,-4.23 31.22,-4.23 8.94,0 17.99,0.82 27.16,2.47 9.17,1.64 17.28,3.87 24.34,6.7l0 -14.82c0,-15.05 -4.24,-26.86 -12.7,-35.45 -8.47,-8.58 -20.46,-12.87 -35.98,-12.87 -18.58,0 -38.09,7.17 -58.55,21.52l-10.23 -20.11c23.75,-15.99 47.62,-23.98 71.6,-23.98 24.22,0 43.09,6.46 56.61,19.4 13.52,12.93 20.28,31.15 20.28,54.67l0 75.13c0,7.29 3.3,11.05 9.88,11.28l0 26.81c-3.29,0.47 -6,0.82 -8.11,1.06 -2.12,0.23 -4.35,0.35 -6.7,0.35 -6.12,0 -10.99,-1.82 -14.64,-5.47 -3.64,-3.64 -5.82,-8.05 -6.53,-13.22l-0.7 -13.05c-8.23,11.05 -18.64,19.45 -31.22,25.22 -12.58,5.76 -26.04,8.64 -40.38,8.64zm8.11 -23.28c11.05,0 21.34,-2.06 30.86,-6.18 9.53,-4.11 16.76,-9.58 21.69,-16.4 4.47,-4.47 6.71,-9.05 6.71,-13.75l0 -27.16c-15.05,-5.88 -30.69,-8.82 -46.92,-8.82 -15.51,0 -28.15,3.29 -37.91,9.87 -9.76,6.59 -14.64,15.17 -14.64,25.75 0,5.18 1,10 3,14.47 2,4.46 4.82,8.34 8.46,11.64 3.65,3.29 7.94,5.87 12.88,7.75 4.94,1.89 10.23,2.83 15.87,2.83zm234.57 10.58c-1.88,0.94 -4.35,2.06 -7.4,3.35 -3.06,1.29 -6.53,2.58 -10.41,3.88 -3.88,1.29 -8.11,2.35 -12.7,3.17 -4.58,0.83 -9.34,1.24 -14.28,1.24 -11.29,0 -21.05,-3.12 -29.28,-9.35 -8.23,-6.23 -12.34,-15.93 -12.34,-29.1l0 -123.8 -25.05 0 0 -24.34 25.05 0 0 -61.37 31.04 0 0 61.37 41.27 0 0 24.34 -41.27 0 0 114.28c0.47,6.82 2.7,11.76 6.7,14.81 4,3.06 8.7,4.59 14.11,4.59 6.11,0 11.7,-1 16.75,-3 5.06,-2 8.53,-3.59 10.41,-4.76l7.4 24.69zm30.36 -248.31l31.03 0 0 209.86c0,6.82 1.83,12.17 5.47,16.05 3.65,3.88 8.76,5.82 15.35,5.82 2.58,0 5.64,-0.41 9.17,-1.23 3.52,-0.83 6.82,-1.83 9.87,-3l4.94 25.04c-5.17,2.12 -11.29,3.88 -18.34,5.29 -7.06,1.41 -13.29,2.12 -18.7,2.12 -11.99,0 -21.45,-3.41 -28.39,-10.23 -6.94,-6.82 -10.4,-16.34 -10.4,-28.57l0 -221.15zm148.16 261.01c-8.7,0 -16.82,-1.47 -24.34,-4.41 -7.53,-2.94 -14.05,-7 -19.58,-12.17 -5.53,-5.18 -9.88,-11.23 -13.05,-18.17 -3.17,-6.93 -4.76,-14.52 -4.76,-22.75 0,-8.46 1.88,-16.16 5.64,-23.1 3.77,-6.94 9.12,-12.87 16.05,-17.81 6.94,-4.94 15.17,-8.82 24.69,-11.64 9.53,-2.82 19.93,-4.23 31.22,-4.23 8.93,0 17.99,0.82 27.16,2.47 9.17,1.64 17.28,3.87 24.33,6.7l0 -14.82c0,-15.05 -4.23,-26.86 -12.69,-35.45 -8.47,-8.58 -20.46,-12.87 -35.98,-12.87 -18.58,0 -38.09,7.17 -58.55,21.52l-10.23 -20.11c23.75,-15.99 47.62,-23.98 71.6,-23.98 24.22,0 43.09,6.46 56.61,19.4 13.52,12.93 20.28,31.15 20.28,54.67l0 75.13c0,7.29 3.29,11.05 9.88,11.28l0 26.81c-3.29,0.47 -6,0.82 -8.11,1.06 -2.12,0.23 -4.35,0.35 -6.71,0.35 -6.11,0 -10.99,-1.82 -14.63,-5.47 -3.65,-3.64 -5.82,-8.05 -6.53,-13.22l-0.7 -13.05c-8.23,11.05 -18.64,19.45 -31.22,25.22 -12.58,5.76 -26.04,8.64 -40.38,8.64zm8.11 -23.28c11.05,0 21.34,-2.06 30.86,-6.18 9.52,-4.11 16.75,-9.58 21.69,-16.4 4.47,-4.47 6.7,-9.05 6.7,-13.75l0 -27.16c-15.04,-5.88 -30.68,-8.82 -46.91,-8.82 -15.52,0 -28.16,3.29 -37.91,9.87 -9.76,6.59 -14.64,15.17 -14.64,25.75 0,5.18 1,10 3,14.47 1.99,4.46 4.82,8.34 8.46,11.64 3.65,3.29 7.94,5.87 12.88,7.75 4.93,1.89 10.22,2.83 15.87,2.83zm205.3 23.28c-14.82,0 -29.4,-2.3 -43.74,-6.88 -14.35,-4.59 -26.69,-11.23 -37.04,-19.93l13.41 -20.81c10.82,8.23 21.63,14.4 32.45,18.52 10.81,4.11 22.22,6.17 34.21,6.17 13.41,0 24.05,-2.64 31.92,-7.94 7.88,-5.29 11.82,-12.75 11.82,-22.39 0,-4.47 -1.06,-8.29 -3.18,-11.47 -2.11,-3.17 -5.29,-5.94 -9.52,-8.29 -4.23,-2.35 -9.64,-4.46 -16.22,-6.35 -6.59,-1.88 -14.23,-3.88 -22.93,-5.99 -11.05,-2.82 -20.58,-5.53 -28.57,-8.11 -8,-2.59 -14.58,-5.65 -19.75,-9.18 -5.18,-3.52 -8.94,-7.76 -11.29,-12.69 -2.35,-4.94 -3.53,-11.06 -3.53,-18.35 0,-9.16 1.82,-17.34 5.47,-24.51 3.64,-7.17 8.64,-13.17 14.99,-17.99 6.35,-4.82 13.81,-8.46 22.4,-10.93 8.58,-2.47 17.81,-3.7 27.69,-3.7 13.87,0 26.8,2.23 38.8,6.7 11.99,4.46 22.1,10.35 30.33,17.63l-14.11 18.7c-7.76,-6.82 -16.46,-11.94 -26.1,-15.35 -9.64,-3.41 -19.52,-5.11 -29.63,-5.11 -11.29,0 -20.87,2.41 -28.75,7.23 -7.87,4.82 -11.81,12.52 -11.81,23.1 0,4.23 0.76,7.76 2.29,10.58 1.53,2.83 4.06,5.29 7.58,7.41 3.53,2.12 8.06,4 13.58,5.65 5.53,1.64 12.17,3.41 19.93,5.29 12.23,2.82 22.87,5.7 31.92,8.64 9.06,2.94 16.58,6.4 22.58,10.4 5.99,4 10.46,8.7 13.4,14.11 2.94,5.41 4.41,12 4.41,19.75 0,17.17 -6.58,30.81 -19.75,40.92 -13.17,10.11 -30.92,15.17 -53.26,15.17z"/>
   </g>
  </g>
 </g>
</svg>
